<svg width="24" height="24" viewBox="0 0 24 24" fill="none" xmlns="http://www.w3.org/2000/svg">
<path d="M21.3615 2.26349L24.7365 5.63849L22.1636 8.21249L18.7886 4.83749L21.3615 2.26349ZM9 18H12.375L20.5729 9.80211L17.1979 6.42711L9 14.625V18Z" fill="#DB2032"/>
<path d="M21.375 21.375H9.17775C9.1485 21.375 9.11813 21.3862 9.08888 21.3862C9.05175 21.3862 9.01463 21.3761 8.97638 21.375H5.625V5.625H13.3279L15.5779 3.375H5.625C4.38412 3.375 3.375 4.383 3.375 5.625V21.375C3.375 22.617 4.38412 23.625 5.625 23.625H21.375C21.9717 23.625 22.544 23.3879 22.966 22.966C23.3879 22.544 23.625 21.9717 23.625 21.375V11.6235L21.375 13.8735V21.375Z" fill="#DB2032"/>
</svg>
