<svg width="26" height="26" viewBox="0 0 26 26" fill="none" xmlns="http://www.w3.org/2000/svg">
<path d="M22.75 13C22.4627 13 22.1872 13.1142 21.984 13.3173C21.7808 13.5205 21.6667 13.796 21.6667 14.0833V20.5833C21.6667 20.8707 21.5525 21.1462 21.3494 21.3494C21.1462 21.5525 20.8707 21.6667 20.5834 21.6667H5.41669C5.12937 21.6667 4.85382 21.5525 4.65065 21.3494C4.44749 21.1462 4.33335 20.8707 4.33335 20.5833V5.41668C4.33335 5.12936 4.44749 4.85381 4.65065 4.65065C4.85382 4.44749 5.12937 4.33335 5.41669 4.33335H11.9167C12.204 4.33335 12.4796 4.21921 12.6827 4.01605C12.8859 3.81288 13 3.53733 13 3.25002C13 2.9627 12.8859 2.68715 12.6827 2.48398C12.4796 2.28082 12.204 2.16668 11.9167 2.16668H5.41669C4.55473 2.16668 3.72808 2.50909 3.11859 3.11858C2.5091 3.72808 2.16669 4.55473 2.16669 5.41668V20.5833C2.16669 21.4453 2.5091 22.272 3.11859 22.8814C3.72808 23.4909 4.55473 23.8333 5.41669 23.8333H20.5834C21.4453 23.8333 22.272 23.4909 22.8814 22.8814C23.4909 22.272 23.8334 21.4453 23.8334 20.5833V14.0833C23.8334 13.796 23.7192 13.5205 23.5161 13.3173C23.3129 13.1142 23.0373 13 22.75 13ZM6.50002 13.8233V18.4167C6.50002 18.704 6.61416 18.9795 6.81732 19.1827C7.02049 19.3859 7.29604 19.5 7.58335 19.5H12.1767C12.3193 19.5008 12.4606 19.4735 12.5926 19.4196C12.7246 19.3657 12.8446 19.2863 12.9459 19.1858L20.4425 11.6783L23.5192 8.66668C23.6207 8.56597 23.7013 8.44615 23.7563 8.31414C23.8113 8.18213 23.8396 8.04053 23.8396 7.89751C23.8396 7.7545 23.8113 7.6129 23.7563 7.48089C23.7013 7.34888 23.6207 7.22906 23.5192 7.12835L18.9259 2.48085C18.8251 2.37931 18.7053 2.29872 18.5733 2.24372C18.4413 2.18872 18.2997 2.1604 18.1567 2.1604C18.0137 2.1604 17.8721 2.18872 17.7401 2.24372C17.608 2.29872 17.4882 2.37931 17.3875 2.48085L14.3325 5.54668L6.81419 13.0542C6.71378 13.1554 6.63435 13.2755 6.58043 13.4074C6.52652 13.5394 6.4992 13.6808 6.50002 13.8233ZM18.1567 4.77751L21.2225 7.84335L19.6842 9.38168L16.6184 6.31585L18.1567 4.77751ZM8.66669 14.2675L15.0909 7.84335L18.1567 10.9092L11.7325 17.3333H8.66669V14.2675Z" fill="#FDFBFA"/>
</svg>
