<svg width="48" height="48" viewBox="0 0 48 48" fill="none" xmlns="http://www.w3.org/2000/svg">
<g clip-path="url(#clip0_71_1770)">
<path fill-rule="evenodd" clip-rule="evenodd" d="M47.7894 23.9797C47.7894 37.1647 37.1423 47.8542 24.0096 47.8542C10.8765 47.8542 0.229492 37.1647 0.229492 23.9797C0.229492 10.7939 10.8765 0.104786 24.0096 0.104786C37.1423 0.104786 47.7894 10.7939 47.7894 23.9797Z" fill="#DB2032"/>
<path d="M47.7894 23.9797C47.7894 37.1647 37.1423 47.8542 24.0096 47.8542C10.8765 47.8542 0.229492 37.1647 0.229492 23.9797C0.229492 10.7939 10.8765 0.104787 24.0096 0.104787C37.1423 0.104787 47.7894 10.7939 47.7894 23.9797Z" stroke="white" stroke-width="0.755907" stroke-miterlimit="22.9256"/>
<path fill-rule="evenodd" clip-rule="evenodd" d="M27.1435 26.026C26.7894 27.9842 26.5884 27.1053 26.1635 26.2857C26.0821 26.1296 25.9962 25.9795 25.9267 25.824C25.9739 25.3802 26.0126 24.9 26.0408 24.3854C26.269 23.9922 26.6682 23.5195 27.3238 22.9232C27.3122 23.8011 27.34 24.9346 27.1435 26.026ZM25.4945 24.315C24.8486 25.2635 25.0265 26.047 25.3532 26.6496C25.2294 28.0047 24.9976 28.8128 24.3528 28.2655C24.4621 27.0047 24.5941 25.13 24.7549 23.2001C25.0116 22.9314 25.2806 22.6509 25.5537 22.3665C25.5419 22.9415 25.5275 23.5904 25.4945 24.315ZM24.1168 23.2515C23.4033 23.9337 22.7981 24.5208 22.4635 24.8608C21.424 25.9183 21.34 26.5121 22.1558 27.1076C22.5766 27.4149 23.097 28.0395 23.5897 28.5453C23.5412 28.9896 23.5008 29.3232 23.473 29.4951C23.2779 30.6896 23.3014 30.8937 21.4644 30.629C19.6276 30.364 18.3305 29.9865 18.0544 29.8489C17.7787 29.7115 16.2792 28.9061 17.7862 26.5517C19.1198 24.4691 22.2718 20.6578 24.6065 18.4173C24.473 19.5982 24.2945 21.417 24.1168 23.2515ZM23.6915 27.5796C23.1366 27.0103 23.1779 27.1502 22.7909 26.789C22.3143 26.344 21.9532 26.1088 23.1313 24.8941C23.364 24.6546 23.6817 24.3223 24.0499 23.9371C23.921 25.2681 23.7955 26.5614 23.6915 27.5796ZM31.4406 19.4735C31.0379 19.2241 29.5764 20.3421 28.196 21.5771C28.1915 21.1367 28.2459 21.1179 28.2635 21.1235C28.2246 21.1038 27.9623 20.9978 27.5612 21.4644C27.4233 21.6243 27.3663 21.9425 27.3416 22.3646C26.8541 22.827 26.4128 23.268 26.0772 23.622C26.1088 22.8794 26.1358 22.2535 26.1604 21.7379C27.2337 20.6299 28.2836 19.5701 28.8501 19.0774C30.045 18.0394 29.8844 18.1121 29.8844 18.1121C29.8844 18.1121 29.9427 17.7654 28.548 19.0677C28.0057 19.5739 27.1223 20.4027 26.1836 21.2887C26.2475 20.1394 26.3099 19.6884 26.4362 19.808C26.4362 19.808 26.4819 20.0964 26.6355 19.9956C26.7888 19.8946 26.784 19.5355 26.7052 18.8944C26.6267 18.2538 26.2174 18.6328 25.8492 19.5123C25.6347 20.0264 25.5909 20.8055 25.565 21.8737C25.3094 22.1156 25.0545 22.3575 24.8057 22.5945C24.9562 20.8351 25.1311 19.0809 25.3326 17.7495C25.3796 17.7086 25.4276 17.6665 25.4737 17.6271C27.8212 15.6215 29.3524 14.4937 29.8956 14.1696C30.4393 13.8449 30.628 13.7647 30.628 13.7647C30.628 13.7647 30.2311 13.5091 28.7358 14.6574C28.0065 15.2174 26.725 16.282 25.3766 17.4711C25.5499 16.4004 25.7431 15.6536 25.9583 15.484C25.9583 15.484 25.0031 15.4966 24.7202 17.4961C24.6968 17.6612 24.6696 17.8763 24.6406 18.1261C23.4614 19.1872 22.2977 20.2899 21.4669 21.1854C19.5069 23.299 16.4869 26.8665 16.3644 28.613C16.2414 30.3594 18.1566 30.6939 19.9715 30.8743C21.7859 31.055 23.9286 31.5696 24.2246 29.506C24.2385 29.4062 24.2537 29.2846 24.2692 29.1437C24.4673 29.2752 24.6484 29.3408 24.7979 29.2943C25.1701 29.1776 25.4926 28.4428 25.7238 27.2288C26.1105 27.7821 26.3473 27.9756 27.2741 27.4348C28.2246 26.8804 28.248 23.3764 28.2147 22.1441C30.1871 20.4413 31.4406 19.4735 31.4406 19.4735Z" fill="white"/>
<path d="M27.1435 26.026C26.7894 27.9842 26.5884 27.1053 26.1635 26.2857C26.0821 26.1296 25.9962 25.9795 25.9267 25.824C25.9739 25.3802 26.0126 24.9 26.0408 24.3854C26.269 23.9922 26.6682 23.5195 27.3238 22.9232C27.3122 23.8011 27.34 24.9346 27.1435 26.026ZM25.4945 24.315C24.8486 25.2635 25.0265 26.047 25.3532 26.6496C25.2294 28.0047 24.9976 28.8128 24.3528 28.2655C24.4621 27.0047 24.5941 25.13 24.7549 23.2001C25.0116 22.9314 25.2806 22.6509 25.5537 22.3665C25.5419 22.9415 25.5275 23.5904 25.4945 24.315ZM24.1168 23.2515C23.4033 23.9337 22.7981 24.5208 22.4635 24.8608C21.424 25.9183 21.34 26.5121 22.1558 27.1076C22.5766 27.4149 23.097 28.0395 23.5897 28.5453C23.5412 28.9896 23.5008 29.3232 23.473 29.4951C23.2779 30.6896 23.3014 30.8937 21.4644 30.629C19.6276 30.364 18.3305 29.9865 18.0544 29.8489C17.7787 29.7115 16.2792 28.9061 17.7862 26.5517C19.1198 24.4691 22.2718 20.6578 24.6065 18.4173C24.473 19.5982 24.2945 21.417 24.1168 23.2515ZM23.6915 27.5796C23.1366 27.0103 23.1779 27.1502 22.7909 26.789C22.3143 26.344 21.9532 26.1088 23.1313 24.8941C23.364 24.6546 23.6817 24.3223 24.0499 23.9371C23.921 25.2681 23.7955 26.5614 23.6915 27.5796ZM31.4406 19.4735C31.0379 19.2241 29.5764 20.3421 28.196 21.5771C28.1915 21.1367 28.2459 21.1179 28.2635 21.1235C28.2246 21.1038 27.9623 20.9978 27.5612 21.4644C27.4233 21.6243 27.3663 21.9425 27.3416 22.3646C26.8541 22.827 26.4128 23.268 26.0772 23.622C26.1088 22.8794 26.1358 22.2535 26.1604 21.7379C27.2337 20.6299 28.2836 19.5701 28.8501 19.0775C30.045 18.0394 29.8844 18.1121 29.8844 18.1121C29.8844 18.1121 29.9427 17.7654 28.548 19.0677C28.0057 19.5739 27.1223 20.4027 26.1836 21.2887C26.2475 20.1394 26.3099 19.6884 26.4362 19.808C26.4362 19.808 26.4819 20.0964 26.6355 19.9956C26.7888 19.8946 26.784 19.5355 26.7052 18.8944C26.6267 18.2538 26.2174 18.6328 25.8492 19.5123C25.6347 20.0264 25.5909 20.8055 25.565 21.8737C25.3094 22.1156 25.0545 22.3575 24.8057 22.5945C24.9562 20.8351 25.1311 19.0809 25.3326 17.7495C25.3796 17.7086 25.4276 17.6665 25.4737 17.6271C27.8212 15.6215 29.3524 14.4937 29.8956 14.1696C30.4393 13.8449 30.628 13.7648 30.628 13.7648C30.628 13.7648 30.2311 13.5091 28.7358 14.6574C28.0065 15.2174 26.725 16.282 25.3766 17.4711C25.5499 16.4004 25.7431 15.6536 25.9583 15.484C25.9583 15.484 25.0031 15.4966 24.7202 17.4961C24.6968 17.6612 24.6696 17.8763 24.6406 18.1261C23.4614 19.1872 22.2977 20.2899 21.4669 21.1854C19.5069 23.299 16.4869 26.8665 16.3644 28.613C16.2414 30.3594 18.1566 30.6939 19.9715 30.8743C21.7859 31.055 23.9286 31.5696 24.2246 29.506C24.2385 29.4062 24.2537 29.2846 24.2692 29.1437C24.4673 29.2752 24.6484 29.3408 24.7979 29.2943C25.1701 29.1776 25.4926 28.4428 25.7238 27.2288C26.1105 27.7821 26.3473 27.9756 27.2741 27.4348C28.2246 26.8804 28.248 23.3764 28.2147 22.1441C30.1871 20.4413 31.4406 19.4735 31.4406 19.4735Z" stroke="white" stroke-width="0.755907" stroke-miterlimit="22.9256"/>
<path fill-rule="evenodd" clip-rule="evenodd" d="M19.7554 36.6161H28.8653V25.3745H32.9849V21.2475H28.8653V15.759H33.8301V10.7131H14.7901V15.759H19.7554V21.2475H15.6355V25.3745H19.7554V36.6161ZM29.3322 37.085H19.2884V25.8431H15.1686V20.779H19.2884V16.2279H14.3234V10.2442H34.2968V16.2279H29.3322V20.779H33.452V25.8431H29.3322V37.085Z" fill="white"/>
<path d="M19.7554 36.6161H28.8653V25.3745H32.9849V21.2475H28.8653V15.759H33.8301V10.7131H14.7901V15.759H19.7554V21.2475H15.6355V25.3745H19.7554V36.6161ZM29.3322 37.085H19.2884V25.8431H15.1686V20.779H19.2884V16.2279H14.3234V10.2442H34.2968V16.2279H29.3322V20.779H33.452V25.8431H29.3322V37.085Z" stroke="white" stroke-width="0.755907" stroke-miterlimit="22.9256"/>
</g>
<defs>
<clipPath id="clip0_71_1770">
<rect width="48" height="48" fill="white"/>
</clipPath>
</defs>
</svg>
