<svg width="21" height="22" viewBox="0 0 21 22" fill="none" xmlns="http://www.w3.org/2000/svg">
<path d="M13.785 9.91602V5.97852C13.785 5.10827 13.4393 4.27368 12.8239 3.65832C12.2086 3.04297 11.374 2.69727 10.5037 2.69727C9.6335 2.69727 8.7989 3.04297 8.18355 3.65832C7.56819 4.27368 7.22249 5.10827 7.22249 5.97852V9.91602M17.159 8.17214L18.2641 18.6721C18.3254 19.254 17.8704 19.7598 17.285 19.7598H3.72249C3.58442 19.7599 3.44787 19.731 3.3217 19.6749C3.19552 19.6189 3.08256 19.5369 2.99014 19.4343C2.89771 19.3318 2.8279 19.2109 2.78524 19.0796C2.74257 18.9483 2.72801 18.8094 2.74249 18.6721L3.84849 8.17214C3.874 7.93026 3.98816 7.70638 4.16896 7.54368C4.34976 7.38098 4.58439 7.29097 4.82762 7.29102H16.1799C16.6839 7.29102 17.1065 7.67164 17.159 8.17214ZM7.55062 9.91602C7.55062 10.003 7.51605 10.0865 7.45451 10.148C7.39297 10.2096 7.30951 10.2441 7.22249 10.2441C7.13547 10.2441 7.05201 10.2096 6.99047 10.148C6.92894 10.0865 6.89437 10.003 6.89437 9.91602C6.89437 9.82899 6.92894 9.74553 6.99047 9.684C7.05201 9.62246 7.13547 9.58789 7.22249 9.58789C7.30951 9.58789 7.39297 9.62246 7.45451 9.684C7.51605 9.74553 7.55062 9.82899 7.55062 9.91602ZM14.1131 9.91602C14.1131 10.003 14.0785 10.0865 14.017 10.148C13.9555 10.2096 13.872 10.2441 13.785 10.2441C13.698 10.2441 13.6145 10.2096 13.553 10.148C13.4914 10.0865 13.4569 10.003 13.4569 9.91602C13.4569 9.82899 13.4914 9.74553 13.553 9.684C13.6145 9.62246 13.698 9.58789 13.785 9.58789C13.872 9.58789 13.9555 9.62246 14.017 9.684C14.0785 9.74553 14.1131 9.82899 14.1131 9.91602Z" stroke="white" stroke-width="1.5" stroke-linecap="round" stroke-linejoin="round"/>
</svg>
