<svg width="21" height="21" viewBox="0 0 21 21" fill="none" xmlns="http://www.w3.org/2000/svg">
<path fill-rule="evenodd" clip-rule="evenodd" d="M3.76687 10.1719L6.3525 12.7575C6.44921 12.8476 6.52679 12.9563 6.58059 13.077C6.63439 13.1978 6.66332 13.3281 6.66565 13.4603C6.66798 13.5925 6.64367 13.7238 6.59416 13.8463C6.54465 13.9689 6.47096 14.0802 6.37749 14.1737C6.28401 14.2672 6.17267 14.3409 6.0501 14.3904C5.92753 14.4399 5.79624 14.4642 5.66406 14.4619C5.53189 14.4596 5.40154 14.4306 5.28079 14.3768C5.16004 14.323 5.05137 14.2454 4.96125 14.1487L0.695625 9.88311L0 9.18748L0.695625 8.49186L4.96125 4.22623C5.14785 4.05235 5.39467 3.95769 5.64969 3.96219C5.90471 3.96669 6.14802 4.07 6.32838 4.25035C6.50873 4.43071 6.61204 4.67403 6.61654 4.92905C6.62104 5.18407 6.52638 5.43088 6.3525 5.61748L3.76687 8.20311H16.7344C17.8657 8.20311 18.9507 8.65252 19.7506 9.45248C20.5506 10.2524 21 11.3374 21 12.4687C21 13.6 20.5506 14.685 19.7506 15.485C18.9507 16.2849 17.8657 16.7344 16.7344 16.7344H14.1094C13.8483 16.7344 13.5979 16.6306 13.4133 16.446C13.2287 16.2614 13.125 16.0111 13.125 15.75C13.125 15.4889 13.2287 15.2385 13.4133 15.0539C13.5979 14.8693 13.8483 14.7656 14.1094 14.7656H16.7344C17.3435 14.7656 17.9278 14.5236 18.3585 14.0929C18.7893 13.6621 19.0312 13.0779 19.0312 12.4687C19.0312 11.8596 18.7893 11.2753 18.3585 10.8446C17.9278 10.4138 17.3435 10.1719 16.7344 10.1719H3.76687Z" fill="#DB2032"/>
</svg>
