<svg width="20" height="20" viewBox="0 0 20 20" fill="none" xmlns="http://www.w3.org/2000/svg">
<path d="M6.01439 9.08916C5.81261 8.72608 5.49598 8.44029 5.1142 8.27664C4.73242 8.11299 4.30711 8.08075 3.90502 8.18497C3.50293 8.2892 3.14684 8.52399 2.89263 8.85249C2.63842 9.181 2.50049 9.58462 2.50049 9.99999C2.50049 10.4154 2.63842 10.819 2.89263 11.1475C3.14684 11.476 3.50293 11.7108 3.90502 11.815C4.30711 11.9192 4.73242 11.887 5.1142 11.7233C5.49598 11.5597 5.81261 11.2739 6.01439 10.9108M6.01439 9.08916C6.16439 9.35916 6.25023 9.66916 6.25023 9.99999C6.25023 10.3308 6.16439 10.6417 6.01439 10.9108M6.01439 9.08916L13.9861 4.66082M6.01439 10.9108L13.9861 15.3392M13.9861 4.66082C14.1029 4.88094 14.2625 5.07555 14.4555 5.23327C14.6485 5.39098 14.8709 5.50865 15.1099 5.57939C15.3489 5.65012 15.5996 5.67251 15.8473 5.64524C16.095 5.61796 16.3348 5.54158 16.5527 5.42054C16.7705 5.29951 16.9621 5.13626 17.1161 4.94034C17.2701 4.74441 17.3836 4.51975 17.4497 4.27948C17.5159 4.03921 17.5336 3.78815 17.5016 3.54099C17.4696 3.29382 17.3887 3.05552 17.2636 2.83999C17.0169 2.41528 16.6135 2.10427 16.1401 1.97384C15.6666 1.8434 15.1608 1.90394 14.7315 2.14245C14.3022 2.38096 13.9836 2.7784 13.8442 3.24932C13.7048 3.72024 13.7557 4.22706 13.9861 4.66082ZM13.9861 15.3392C13.8664 15.5545 13.7904 15.7912 13.7623 16.0359C13.7342 16.2806 13.7546 16.5285 13.8222 16.7653C13.8899 17.0021 14.0036 17.2233 14.1567 17.4162C14.3099 17.6091 14.4995 17.77 14.7148 17.8896C14.9301 18.0092 15.1669 18.0852 15.4116 18.1133C15.6563 18.1414 15.9041 18.1211 16.1409 18.0534C16.3778 17.9857 16.599 17.8721 16.7919 17.7189C16.9848 17.5658 17.1456 17.3761 17.2652 17.1608C17.5068 16.726 17.5657 16.213 17.4291 15.7347C17.2924 15.2564 16.9713 14.852 16.5365 14.6104C16.1016 14.3688 15.5886 14.3099 15.1103 14.4466C14.632 14.5832 14.2276 14.9043 13.9861 15.3392Z" stroke="#3A4980" stroke-width="1.5" stroke-linecap="round" stroke-linejoin="round"/>
</svg>
